<?xml version="1.0" standalone="no"?>
<!DOCTYPE svg PUBLIC "-//W3C//DTD SVG 20010904//EN"
 "http://www.w3.org/TR/2001/REC-SVG-20010904/DTD/svg10.dtd">
<svg version="1.0" xmlns="http://www.w3.org/2000/svg"
 width="96.000000pt" height="96.000000pt" viewBox="0 0 96.000000 96.000000"
 preserveAspectRatio="xMidYMid meet">
<metadata>
Created by potrace 1.14, written by Peter Selinger 2001-2017
</metadata>
<g transform="translate(0.000000,96.000000) scale(0.100000,-0.100000)"
fill="#000000" stroke="none">
<path d="M455 794 c-88 -21 -163 -81 -195 -157 -24 -56 -34 -166 -18 -207 6
-14 10 -40 9 -58 0 -34 8 -47 94 -138 94 -99 119 -114 192 -114 l65 0 97 98
c90 91 122 137 100 144 -5 2 -3 32 5 69 31 151 -21 276 -143 338 -41 21 -161
36 -206 25z"/>
<path d="M919 643 c-1 -16 -2 -35 -3 -43 -1 -8 4 -23 9 -32 15 -23 7 -88 -11
-88 -7 0 -29 -15 -49 -32 -42 -39 -48 -83 -12 -93 12 -4 37 -18 55 -32 17 -13
37 -21 42 -18 12 7 14 172 2 179 -9 6 -9 73 1 82 9 9 8 64 -1 84 -12 26 -32
22 -33 -7z"/>
<path d="M56 595 c-11 -29 -7 -50 13 -67 10 -8 24 -12 31 -8 18 11 8 61 -16
77 -19 12 -22 12 -28 -2z"/>
<path d="M92 495 c4 -4 1 -19 -6 -34 -20 -39 -8 -130 15 -115 5 3 9 2 8 -3
-10 -56 31 -57 82 -1 21 23 37 50 35 60 -2 18 -26 49 -26 34 0 -4 -10 0 -22 8
-12 9 -33 16 -45 16 -13 0 -23 6 -23 14 0 8 -6 18 -12 22 -7 4 -10 4 -6 -1z"/>
</g>
</svg>
